<svg width="130" height="30" viewBox="0 0 130 30" fill="none" xmlns="http://www.w3.org/2000/svg">
<path d="M16.5908 23.452C17.5028 23.452 18.1988 23.68 18.6788 24.136C19.1828 24.592 19.4348 25.132 19.4348 25.756C19.4348 25.996 19.3748 26.236 19.2548 26.476C19.1588 26.74 18.9908 26.98 18.7508 27.196C18.5108 27.412 18.2108 27.592 17.8508 27.736C17.5148 27.88 17.0948 27.952 16.5908 27.952H3.45078C2.61078 27.952 1.95078 27.736 1.47078 27.304C1.01478 26.872 0.786781 26.26 0.786781 25.468V2.932C0.786781 2.26 1.03878 1.72 1.54278 1.312C2.07078 0.879998 2.71878 0.663998 3.48678 0.663998H16.6628C17.5748 0.663998 18.2588 0.891999 18.7148 1.348C19.1948 1.78 19.4348 2.308 19.4348 2.932C19.4348 3.436 19.2188 3.928 18.7868 4.408C18.3548 4.864 17.6468 5.092 16.6628 5.092H7.01478V12.076H15.4388C16.3508 12.076 17.0228 12.292 17.4548 12.724C17.8868 13.156 18.1028 13.684 18.1028 14.308C18.1028 14.812 17.8988 15.304 17.4908 15.784C17.1068 16.24 16.4228 16.468 15.4388 16.468H7.01478V23.452H16.5908ZM65.2119 23.452C66.1239 23.452 66.8199 23.68 67.2999 24.136C67.8039 24.592 68.0559 25.132 68.0559 25.756C68.0559 25.996 67.9959 26.236 67.8759 26.476C67.7799 26.74 67.6119 26.98 67.3719 27.196C67.1319 27.412 66.8319 27.592 66.4719 27.736C66.1359 27.88 65.7159 27.952 65.2119 27.952H52.0719C51.2319 27.952 50.5719 27.736 50.0919 27.304C49.6359 26.872 49.4079 26.26 49.4079 25.468V2.932C49.4079 2.26 49.6599 1.72 50.1639 1.312C50.6919 0.879998 51.3399 0.663998 52.1079 0.663998H65.2839C66.1959 0.663998 66.8799 0.891999 67.3359 1.348C67.8159 1.78 68.0559 2.308 68.0559 2.932C68.0559 3.436 67.8399 3.928 67.4079 4.408C66.9759 4.864 66.2679 5.092 65.2839 5.092H55.6359V12.076H64.0599C64.9719 12.076 65.6439 12.292 66.0759 12.724C66.5079 13.156 66.7239 13.684 66.7239 14.308C66.7239 14.812 66.5199 15.304 66.1119 15.784C65.7279 16.24 65.0439 16.468 64.0599 16.468H55.6359V23.452H65.2119Z" fill="#FDF09E"/>
<path d="M36.4636 17.188V25.18C36.4636 26.092 36.1516 26.776 35.5276 27.232C34.9276 27.712 34.1956 27.952 33.3316 27.952C32.4676 27.952 31.7356 27.712 31.1356 27.232C30.5356 26.776 30.2356 26.092 30.2356 25.18V17.188L21.3436 4.408C21.0796 4 20.9476 3.568 20.9476 3.112C20.9476 2.704 21.0556 2.308 21.2716 1.924C21.4876 1.54 21.7996 1.216 22.2076 0.951998C22.8316 0.567999 23.4556 0.375999 24.0796 0.375999C24.4876 0.375999 24.8596 0.459999 25.1956 0.627998C25.5316 0.771999 25.8076 0.999999 26.0236 1.312L33.3316 12.292L40.4956 1.492C40.9516 0.795998 41.5996 0.447999 42.4396 0.447999C43.0396 0.447999 43.6516 0.615999 44.2756 0.951998C44.7076 1.168 45.0676 1.48 45.3556 1.888C45.6436 2.296 45.7876 2.728 45.7876 3.184C45.7876 3.64 45.6556 4.048 45.3916 4.408L36.4636 17.188Z" fill="#2FE187"/>
<path d="M93.9687 19.016C93.0087 18.8027 92.0807 18.4827 91.1847 18.056C90.2887 17.6293 89.4247 17.1387 88.5927 16.584C87.7821 16.008 87.0247 15.3893 86.3207 14.728C85.6167 14.0667 84.9874 13.3947 84.4327 12.712C83.8567 13.3733 83.2167 14.024 82.5127 14.664C81.8087 15.304 81.0727 15.9013 80.3047 16.456C79.5367 16.9893 78.7474 17.4587 77.9367 17.864C77.1261 18.2693 76.3261 18.5787 75.5367 18.792C75.2381 18.8773 74.9074 18.9413 74.5447 18.984C74.2034 19.0053 73.8621 18.984 73.5207 18.92C73.1581 18.8347 72.8167 18.6747 72.4967 18.44C72.1767 18.2053 71.9421 17.8427 71.7927 17.352C71.5581 16.584 71.6221 15.9333 71.9847 15.4C72.3474 14.8453 72.9234 14.4187 73.7127 14.12C74.6087 13.7787 75.5047 13.3627 76.4007 12.872C77.3181 12.3813 78.1607 11.8373 78.9287 11.24C79.6967 10.6213 80.3687 9.91733 80.9447 9.128C81.4354 8.46667 81.7234 7.76267 81.8087 7.016H76.0167C75.4194 7.016 74.9287 6.952 74.5447 6.824C74.1607 6.696 73.8621 6.536 73.6487 6.344C73.4354 6.13067 73.2861 5.896 73.2007 5.64C73.1367 5.36267 73.1047 5.096 73.1047 4.84C73.1047 4.52 73.1367 4.232 73.2007 3.976C73.2861 3.69867 73.4354 3.464 73.6487 3.272C73.8621 3.05867 74.1607 2.89867 74.5447 2.792C74.9287 2.664 75.4194 2.6 76.0167 2.6H92.5287C93.1261 2.6 93.6167 2.664 94.0007 2.792C94.3847 2.89867 94.6834 3.05867 94.8967 3.272C95.1101 3.464 95.2487 3.69867 95.3127 3.976C95.3981 4.232 95.4407 4.52 95.4407 4.84C95.4407 5.096 95.3981 5.36267 95.3127 5.64C95.2487 5.896 95.1101 6.13067 94.8967 6.344C94.6834 6.536 94.3847 6.696 94.0007 6.824C93.6167 6.952 93.1261 7.016 92.5287 7.016H87.1847C87.2701 7.76267 87.5261 8.47733 87.9527 9.16C88.4647 9.97067 89.0514 10.7067 89.7127 11.368C90.3954 12.008 91.1741 12.5733 92.0487 13.064C92.9234 13.5547 93.8194 13.928 94.7367 14.184C95.5474 14.4187 96.1554 14.792 96.5607 15.304C96.9874 15.816 97.1154 16.4667 96.9447 17.256C96.7527 18.088 96.2621 18.6427 95.4727 18.92C95.2381 19.0053 94.9927 19.0587 94.7367 19.08C94.4807 19.1013 94.2247 19.08 93.9687 19.016ZM73.2007 29.352C72.6034 29.352 72.1127 29.288 71.7287 29.16C71.3447 29.032 71.0461 28.8613 70.8327 28.648C70.6194 28.456 70.4701 28.2213 70.3847 27.944C70.3207 27.688 70.2887 27.432 70.2887 27.176C70.2887 26.856 70.3207 26.5573 70.3847 26.28C70.4701 26.024 70.6194 25.7893 70.8327 25.576C71.0461 25.384 71.3447 25.224 71.7287 25.096C72.1127 24.9893 72.6034 24.936 73.2007 24.936H81.7447V20.008C81.7447 18.9413 82.0007 18.216 82.5127 17.832C83.0461 17.4267 83.6541 17.224 84.3367 17.224C84.6781 17.224 84.9981 17.2667 85.2967 17.352C85.6167 17.4373 85.8941 17.5867 86.1287 17.8C86.3634 18.0133 86.5554 18.3013 86.7047 18.664C86.8541 19.0267 86.9287 19.4747 86.9287 20.008V24.936H95.4407C96.0381 24.936 96.5287 24.9893 96.9127 25.096C97.2967 25.224 97.5954 25.384 97.8087 25.576C98.0221 25.7893 98.1607 26.024 98.2247 26.28C98.3101 26.5573 98.3527 26.856 98.3527 27.176C98.3527 27.432 98.3101 27.688 98.2247 27.944C98.1607 28.2213 98.0221 28.456 97.8087 28.648C97.5954 28.8613 97.2967 29.032 96.9127 29.16C96.5287 29.288 96.0381 29.352 95.4407 29.352H73.2007ZM108.791 29.416C107.554 29.416 106.519 29.2773 105.687 29C104.855 28.7227 104.172 28.3067 103.639 27.752C103.127 27.2187 102.743 26.5467 102.487 25.736C102.231 24.9467 102.071 24.0293 102.007 22.984C101.986 22.792 101.975 22.344 101.975 21.64C101.975 20.9147 101.964 20.0613 101.943 19.08C101.943 18.0987 101.943 17.0533 101.943 15.944C101.943 14.8347 101.943 13.7893 101.943 12.808C101.964 11.8267 101.975 10.984 101.975 10.28C101.975 9.576 101.986 9.128 102.007 8.936C102.071 7.86933 102.22 6.93067 102.455 6.12C102.711 5.30933 103.095 4.62667 103.607 4.072C104.14 3.51733 104.823 3.10133 105.655 2.824C106.487 2.52533 107.532 2.376 108.791 2.376C109.964 2.376 110.967 2.52533 111.799 2.824C112.631 3.10133 113.314 3.51733 113.847 4.072C114.38 4.62667 114.786 5.32 115.063 6.152C115.34 6.96267 115.511 7.89067 115.575 8.936C115.575 9.128 115.575 9.58667 115.575 10.312C115.596 11.016 115.607 11.8587 115.607 12.84C115.607 13.8213 115.607 14.8667 115.607 15.976C115.628 17.0853 115.628 18.1307 115.607 19.112C115.607 20.0933 115.596 20.9467 115.575 21.672C115.575 22.376 115.575 22.8133 115.575 22.984C115.532 25.1387 114.988 26.7493 113.943 27.816C112.919 28.8827 111.202 29.416 108.791 29.416ZM108.791 25.064C108.962 25.064 109.132 25.0427 109.303 25C109.495 24.9787 109.666 24.8933 109.815 24.744C109.964 24.5947 110.092 24.392 110.199 24.136C110.306 23.8587 110.37 23.4747 110.391 22.984C110.391 22.792 110.391 22.3333 110.391 21.608C110.412 20.8613 110.423 19.9973 110.423 19.016V12.712C110.423 11.7093 110.412 10.856 110.391 10.152C110.391 9.448 110.391 9 110.391 8.808C110.391 8.36 110.338 7.99733 110.231 7.72C110.146 7.44267 110.018 7.24 109.847 7.112C109.698 6.96267 109.527 6.86667 109.335 6.824C109.143 6.78133 108.962 6.76 108.791 6.76C108.62 6.76 108.439 6.792 108.247 6.856C108.076 6.89867 107.916 6.99467 107.767 7.144C107.618 7.29333 107.49 7.51733 107.383 7.816C107.276 8.09333 107.212 8.456 107.191 8.904C107.17 9.096 107.159 9.55467 107.159 10.28C107.159 11.0053 107.148 11.8587 107.127 12.84C107.127 13.8213 107.127 14.8667 107.127 15.976C107.127 17.0853 107.127 18.1307 107.127 19.112C107.148 20.0933 107.159 20.9467 107.159 21.672C107.159 22.376 107.17 22.8133 107.191 22.984C107.191 23.4747 107.234 23.8587 107.319 24.136C107.426 24.392 107.554 24.5947 107.703 24.744C107.852 24.8933 108.023 24.9787 108.215 25C108.407 25.0427 108.599 25.064 108.791 25.064ZM122.231 29.736C121.89 29.736 121.559 29.6933 121.239 29.608C120.94 29.5227 120.663 29.3733 120.407 29.16C120.172 28.9467 119.98 28.6587 119.831 28.296C119.703 27.9333 119.639 27.4747 119.639 26.92V5.064C119.639 3.99733 119.895 3.272 120.407 2.888C120.94 2.48267 121.548 2.28 122.231 2.28C122.572 2.28 122.892 2.32267 123.191 2.408C123.511 2.49333 123.788 2.64267 124.023 2.856C124.258 3.06933 124.45 3.35733 124.599 3.72C124.748 4.08267 124.823 4.53067 124.823 5.064V12.744H126.839C127.436 12.744 127.927 12.808 128.311 12.936C128.695 13.064 128.994 13.2347 129.207 13.448C129.42 13.64 129.559 13.8747 129.623 14.152C129.708 14.408 129.751 14.664 129.751 14.92C129.751 15.24 129.708 15.5387 129.623 15.816C129.559 16.072 129.42 16.3067 129.207 16.52C128.994 16.712 128.695 16.872 128.311 17C127.927 17.1067 127.436 17.16 126.839 17.16H124.823V26.92C124.823 27.4747 124.748 27.9333 124.599 28.296C124.45 28.6587 124.258 28.9467 124.023 29.16C123.788 29.3733 123.511 29.5227 123.191 29.608C122.892 29.6933 122.572 29.736 122.231 29.736Z" fill="black"/>
</svg>
